<?xml version="1.0" encoding="utf-8"?>
<!-- Generator: Adobe Illustrator 15.0.0, SVG Export Plug-In . SVG Version: 6.00 Build 0)  -->
<!DOCTYPE svg PUBLIC "-//W3C//DTD SVG 1.1//EN" "http://www.w3.org/Graphics/SVG/1.1/DTD/svg11.dtd">
<svg version="1.1" id="Layer_1" xmlns="http://www.w3.org/2000/svg" xmlns:xlink="http://www.w3.org/1999/xlink" x="0px" y="0px"
	 width="24px" height="24px" viewBox="0 0 24 24" enable-background="new 0 0 24 24" xml:space="preserve">
<path fill="none" d="M30.258,12h24v24h-24V12z"/>
<path fill="#FFFFFF" d="M49.607,22.04c-0.68-3.45-3.709-6.04-7.35-6.04c-2.891,0-5.4,1.641-6.65,4.04
	c-3.01,0.319-5.35,2.87-5.35,5.96c0,3.311,2.689,6,6,6h13c2.76,0,5-2.24,5-5C54.258,24.359,52.208,22.221,49.607,22.04z M44.258,25
	v4h-4v-4h-3l5-5l5,5H44.258z"/>
<path id="ic_add_circle_outline_24px" fill="#FFFFFF" d="M12.806,7.968h-1.612v3.226H7.966v1.612h3.228v3.227h1.612v-3.227h3.226
	v-1.612h-3.226V7.968z M12,3.935c-4.455,0-8.065,3.61-8.065,8.065s3.61,8.065,8.065,8.065c4.454,0,8.065-3.61,8.065-8.065
	C20.064,7.546,16.454,3.936,12,3.935z M12,18.451c-3.563,0-6.451-2.888-6.451-6.451S8.437,5.549,12,5.549S18.451,8.437,18.451,12
	C18.446,15.562,15.562,18.446,12,18.451z"/>
</svg>
