<?xml version="1.0" encoding="utf-8"?>
<!-- Generator: Adobe Illustrator 15.0.0, SVG Export Plug-In . SVG Version: 6.00 Build 0)  -->
<!DOCTYPE svg PUBLIC "-//W3C//DTD SVG 1.0//EN" "http://www.w3.org/TR/2001/REC-SVG-20010904/DTD/svg10.dtd">
<svg version="1.0" id="Layer_1" xmlns="http://www.w3.org/2000/svg" xmlns:xlink="http://www.w3.org/1999/xlink" x="0px" y="0px"
	 width="24px" height="24px" viewBox="0 0 24 24" enable-background="new 0 0 24 24" xml:space="preserve">
<g id="Group_54" transform="translate(3.779)">
	<g id="Group_53">
		<path id="Path_29" fill="#FFFFFF" d="M15.469,9.328V6.621H13.86c-0.152-0.674-0.418-1.318-0.788-1.901l1.139-1.14l-1.919-1.918
			l-1.145,1.135c-0.583-0.37-1.227-0.637-1.9-0.789V0.396H6.538v1.611C5.865,2.159,5.221,2.425,4.637,2.796l-1.145-1.14L1.574,3.574
			l1.14,1.14C2.346,5.298,2.081,5.941,1.93,6.615H0.314v2.708H1.93c0.15,0.676,0.415,1.32,0.783,1.905l-1.14,1.14l1.218,1.217
			c-1.375,1.358-2.147,3.21-2.146,5.142v5.005h14.487v-5.005c0.003-1.932-0.771-3.783-2.146-5.142l1.219-1.217l-1.142-1.14
			c0.37-0.583,0.639-1.226,0.789-1.901L15.469,9.328z M14.466,18.729v4.332h-2.387v-4.116h-0.674v4.116h-7.02v-4.116H3.707v4.116
			H1.318v-4.332c0-1.755,0.702-3.437,1.951-4.667l0.225,0.226l1.14-1.141c0.508,0.322,1.062,0.566,1.644,0.724l0.257,0.296v1.38
			h1.021v2.913h0.672v-2.913h1.02v-1.38l0.259-0.296c0.58-0.157,1.134-0.401,1.643-0.724l1.14,1.141l0.226-0.226
			c1.248,1.231,1.948,2.912,1.948,4.667H14.466z M13.252,8.933c-0.138,0.772-0.44,1.505-0.891,2.147l-0.163,0.231l1.06,1.058
			l-0.967,0.966l-1.058-1.058l-0.23,0.161c-0.642,0.451-1.375,0.754-2.146,0.891l-0.278,0.05v1.495H7.207v-1.495l-0.277-0.05
			c-0.772-0.137-1.505-0.44-2.147-0.891l-0.231-0.161l-1.058,1.058l-0.966-0.966l1.059-1.058L3.424,11.08
			c-0.449-0.642-0.753-1.375-0.891-2.147l-0.05-0.277H0.989V7.289h1.495l0.05-0.277C2.671,6.24,2.975,5.506,3.424,4.865l0.162-0.231
			L2.527,3.575l0.966-0.966l1.058,1.059l0.231-0.162c0.642-0.45,1.375-0.753,2.147-0.891l0.277-0.053V1.069h1.367v1.494l0.277,0.05
			c0.772,0.137,1.505,0.44,2.147,0.891l0.23,0.161l1.059-1.059l0.965,0.967L12.195,4.63l0.161,0.231
			c0.449,0.642,0.754,1.374,0.89,2.146l0.05,0.277h1.495v1.37h-1.495L13.252,8.933z"/>
	</g>
</g>
<g id="Group_56" transform="translate(7.245 3.466)">
	<g id="Group_55">
		<path id="Path_30" fill="#FFFFFF" d="M4.422,0.685c-2.111,0-3.822,1.71-3.822,3.821c0,2.11,1.711,3.822,3.822,3.822
			s3.821-1.711,3.821-3.822l0,0C8.241,2.396,6.531,0.687,4.422,0.685z M4.422,7.654c-1.739,0-3.148-1.409-3.148-3.147
			c0-1.738,1.409-3.148,3.148-3.148c1.738,0,3.147,1.41,3.147,3.148C7.567,6.244,6.159,7.651,4.422,7.654L4.422,7.654z"/>
	</g>
</g>
<g id="Group_58" transform="translate(9.442 5.663)">
	<g id="Group_57">
		<path id="Path_31" fill="#FFFFFF" d="M2.226,0.867c-0.795,0-1.441,0.646-1.441,1.441s0.646,1.441,1.441,1.441
			s1.439-0.646,1.439-1.441S3.021,0.869,2.226,0.867z M2.226,3.076c-0.424,0-0.768-0.343-0.768-0.768S1.802,1.54,2.226,1.54
			c0.424,0,0.768,0.344,0.768,0.768l0,0C2.993,2.732,2.65,3.075,2.226,3.076z"/>
	</g>
</g>
<g id="Group_60" transform="translate(18.047 12.395)">
	<g id="Group_59">
		<rect id="Rectangle_39" x="1.502" y="1.426" fill="#FFFFFF" width="0.672" height="0.75"/>
	</g>
</g>
<g id="Group_62" transform="translate(19.859 17.188)">
	<g id="Group_61">
		<rect id="Rectangle_40" x="1.652" y="1.827" fill="#FFFFFF" width="0.672" height="0.749"/>
	</g>
</g>
<g id="Group_64" transform="translate(19.859 9.562)">
	<g id="Group_63">
		<rect id="Rectangle_41" x="1.652" y="1.192" fill="#FFFFFF" width="0.672" height="0.748"/>
	</g>
</g>
<g id="Group_66" transform="translate(20.923 5.974)">
	<g id="Group_65">
		<rect id="Rectangle_42" x="1.741" y="0.894" fill="#FFFFFF" width="0.672" height="0.748"/>
	</g>
</g>
<g id="Group_68" transform="translate(18.403 3.589)">
	<g id="Group_67">
		<rect id="Rectangle_43" x="1.531" y="0.695" fill="#FFFFFF" width="0.673" height="0.748"/>
	</g>
</g>
<g id="Group_70" transform="translate(19.859 1.204)">
	<g id="Group_69">
		<rect id="Rectangle_44" x="1.652" y="0.496" fill="#FFFFFF" width="0.672" height="0.749"/>
	</g>
</g>
<g id="Group_72" transform="translate(2.856 12.395)">
	<g id="Group_71">
		<rect id="Rectangle_45" x="0.238" y="1.426" fill="#FFFFFF" width="0.673" height="0.75"/>
	</g>
</g>
<g id="Group_74" transform="translate(1.044 17.188)">
	<g id="Group_73">
		<rect id="Rectangle_46" x="0.086" y="1.827" fill="#FFFFFF" width="0.673" height="0.749"/>
	</g>
</g>
<g id="Group_76" transform="translate(1.044 9.562)">
	<g id="Group_75">
		<rect id="Rectangle_47" x="0.086" y="1.192" fill="#FFFFFF" width="0.673" height="0.748"/>
	</g>
</g>
<g id="Group_78" transform="translate(0 5.974)">
	<g id="Group_77">
		<rect id="Rectangle_48" x="0" y="0.894" fill="#FFFFFF" width="0.672" height="0.748"/>
	</g>
</g>
<g id="Group_80" transform="translate(2.5 3.589)">
	<g id="Group_79">
		<rect id="Rectangle_49" x="0.208" y="0.695" fill="#FFFFFF" width="0.673" height="0.748"/>
	</g>
</g>
<g id="Group_82" transform="translate(1.044 1.204)">
	<g id="Group_81">
		<rect id="Rectangle_50" x="0.086" y="0.496" fill="#FFFFFF" width="0.673" height="0.749"/>
	</g>
</g>
</svg>
