<svg xmlns="http://www.w3.org/2000/svg" viewBox="0 0 22 22">
  <defs>
    <style>
      .cls-1 {
        fill: #f02326;
      }
    </style>
  </defs>
  <path id="ic_gps_off_24px" class="cls-1" d="M20.94,11A8.994,8.994,0,0,0,13,3.06V1H11V3.06a8.754,8.754,0,0,0-3.16.97l1.5,1.5A6.99,6.99,0,0,1,19,12a7.032,7.032,0,0,1-.52,2.65l1.5,1.5A9.045,9.045,0,0,0,20.95,13H23V11ZM3,4.27,5.04,6.31A8.914,8.914,0,0,0,3.06,11H1v2H3.06A8.994,8.994,0,0,0,11,20.94V23h2V20.94a8.994,8.994,0,0,0,4.69-1.98L19.73,21,21,19.73,4.27,3ZM16.27,17.54A6.993,6.993,0,0,1,6.46,7.73Z" transform="translate(-1 -1)"/>
</svg>
