<?xml version="1.0" encoding="utf-8"?>
<!-- Generator: Adobe Illustrator 15.0.0, SVG Export Plug-In . SVG Version: 6.00 Build 0)  -->
<!DOCTYPE svg PUBLIC "-//W3C//DTD SVG 1.0//EN" "http://www.w3.org/TR/2001/REC-SVG-20010904/DTD/svg10.dtd">
<svg version="1.0" id="Layer_1" xmlns="http://www.w3.org/2000/svg" xmlns:xlink="http://www.w3.org/1999/xlink" x="0px" y="0px"
	 width="24px" height="24px" viewBox="0 0 24 24" enable-background="new 0 0 24 24" xml:space="preserve">
<g id="layout" transform="translate(-2 -2)">
	<path id="Path_44" fill="#FFFFFF" d="M24.626,2.193H3.373c-0.652,0-1.18,0.529-1.18,1.181v21.253c0,0.652,0.528,1.18,1.18,1.18l0,0
		h21.253c0.652,0,1.181-0.527,1.181-1.18l0,0V3.374C25.807,2.722,25.278,2.193,24.626,2.193L24.626,2.193z M25.025,24.627
		c0,0.221-0.179,0.399-0.399,0.399H3.373c-0.221,0-0.4-0.179-0.4-0.399V6.128H25.02L25.025,24.627z M2.98,5.341V3.374
		c0-0.221,0.179-0.4,0.399-0.4h21.247c0.221,0,0.399,0.179,0.399,0.4v1.967H2.98z"/>
	<path id="Path_45" fill="#FFFFFF" d="M3.881,3.88C3.809,3.954,3.768,4.053,3.767,4.155c0.001,0.052,0.012,0.102,0.032,0.149
		C3.816,4.355,3.844,4.4,3.881,4.438c0.185,0.122,0.433,0.07,0.554-0.114C4.524,4.19,4.523,4.015,4.434,3.88
		C4.276,3.739,4.038,3.739,3.881,3.88z"/>
	<path id="Path_46" fill="#FFFFFF" d="M5.456,3.88c-0.073,0.076-0.113,0.176-0.115,0.28c0,0.026,0.003,0.053,0.008,0.079
		c0.004,0.025,0.013,0.049,0.024,0.071c0.009,0.025,0.021,0.048,0.036,0.07c0.014,0.021,0.03,0.041,0.047,0.059
		c0.155,0.151,0.403,0.151,0.559,0l0.047-0.059c0.015-0.022,0.027-0.045,0.036-0.07c0.012-0.022,0.02-0.046,0.024-0.071
		c0.004-0.026,0.007-0.052,0.008-0.079C6.119,3.94,5.931,3.77,5.71,3.78C5.618,3.785,5.53,3.821,5.462,3.882L5.456,3.88z"/>
	<path id="Path_47" fill="#FFFFFF" d="M7.031,3.88C6.873,4.035,6.869,4.289,7.024,4.447c0.154,0.158,0.408,0.161,0.565,0.007
		c0.158-0.154,0.162-0.408,0.007-0.566C7.594,3.885,7.592,3.883,7.589,3.88C7.432,3.735,7.188,3.735,7.031,3.88z"/>
	<path id="Path_48" fill="#FFFFFF" d="M24.23,6.917H3.767v5.51H24.23V6.917z M23.444,11.64H4.554V7.704h18.891V11.64z"/>
	<path id="Path_49" fill="#FFFFFF" d="M10.851,13.213H3.767v11.019h7.084V13.213z M10.064,23.445h-5.51v-9.446h5.51V23.445z"/>
	<path id="Path_50" fill="#FFFFFF" d="M11.638,18.329H24.23v-5.116H11.638V18.329z M12.425,14h11.02v3.543h-11.02V14z"/>
	<path id="Path_51" fill="#FFFFFF" d="M11.638,24.232H24.23v-5.116H11.638V24.232z M12.425,19.905h11.02v3.541h-11.02V19.905z"/>
</g>
</svg>
