<?xml version="1.0" encoding="utf-8"?>
<!-- Generator: Adobe Illustrator 15.0.0, SVG Export Plug-In . SVG Version: 6.00 Build 0)  -->
<!DOCTYPE svg PUBLIC "-//W3C//DTD SVG 1.0//EN" "http://www.w3.org/TR/2001/REC-SVG-20010904/DTD/svg10.dtd">
<svg version="1.0" id="Layer_1" xmlns="http://www.w3.org/2000/svg" xmlns:xlink="http://www.w3.org/1999/xlink" x="0px" y="0px"
	 width="24px" height="24px" viewBox="0 0 24 24" enable-background="new 0 0 24 24" xml:space="preserve">
<g id="Group_24">
	<g id="Group_23">
		<path id="Path_10" fill="#FFFFFF" d="M22.8,8.43l-1.98-0.396c-0.13-0.417-0.297-0.821-0.498-1.208l1.118-1.679
			c0.332-0.498,0.267-1.16-0.155-1.583l-0.85-0.848c-0.423-0.421-1.083-0.487-1.581-0.156l-1.68,1.116
			c-0.389-0.202-0.792-0.37-1.211-0.501l-0.394-1.973c-0.116-0.587-0.632-1.012-1.23-1.013h-1.2
			c-0.599,0.001-1.112,0.425-1.229,1.013l-0.396,1.977c-0.417,0.131-0.822,0.299-1.21,0.502L8.625,2.562
			C8.127,2.231,7.466,2.297,7.042,2.718L6.198,3.564C5.776,3.987,5.71,4.648,6.041,5.146l1.117,1.679
			c-0.203,0.388-0.371,0.792-0.501,1.21L4.679,8.432c-0.587,0.117-1.01,0.631-1.012,1.23v1.196c0.002,0.599,0.425,1.113,1.012,1.229
			l1.281,0.257c0.199,0.052,0.403-0.067,0.455-0.268c0.052-0.199-0.067-0.402-0.267-0.454c-0.014-0.004-0.028-0.007-0.042-0.009
			l-1.28-0.257c-0.236-0.048-0.408-0.256-0.408-0.498v-1.2c0-0.242,0.172-0.451,0.408-0.499l2.198-0.439
			c0.138-0.028,0.248-0.13,0.286-0.265C7.452,7.943,7.656,7.45,7.917,6.986c0.069-0.122,0.063-0.273-0.015-0.39L6.66,4.731
			C6.526,4.53,6.553,4.261,6.724,4.09l0.848-0.847c0.171-0.171,0.439-0.198,0.641-0.063l1.865,1.243
			c0.117,0.078,0.268,0.083,0.39,0.015c0.463-0.261,0.955-0.466,1.466-0.609c0.135-0.038,0.238-0.148,0.266-0.286l0.439-2.197
			c0.048-0.238,0.257-0.408,0.499-0.409h1.198c0.242,0,0.449,0.171,0.498,0.409l0.44,2.197c0.028,0.138,0.131,0.249,0.266,0.286
			c0.511,0.143,1.005,0.348,1.468,0.609c0.122,0.069,0.274,0.063,0.391-0.015l1.864-1.245c0.202-0.133,0.471-0.107,0.643,0.065
			l0.848,0.847c0.171,0.172,0.198,0.44,0.063,0.643l-1.24,1.868c-0.078,0.117-0.084,0.268-0.015,0.391
			c0.262,0.463,0.465,0.956,0.608,1.468c0.038,0.135,0.147,0.238,0.285,0.266l2.198,0.439c0.237,0.048,0.407,0.256,0.408,0.499
			v1.194c-0.001,0.242-0.171,0.45-0.408,0.499l-2.198,0.439c-0.138,0.028-0.247,0.13-0.285,0.266
			c-0.144,0.511-0.347,1.006-0.608,1.468c-0.068,0.123-0.063,0.274,0.015,0.392l1.243,1.864c0.134,0.202,0.106,0.47-0.065,0.642
			l-0.847,0.848c-0.173,0.17-0.438,0.197-0.643,0.063l-1.863-1.244c-0.167-0.121-0.4-0.086-0.521,0.081
			c-0.122,0.167-0.086,0.401,0.08,0.522c0.01,0.006,0.018,0.011,0.027,0.018l1.866,1.245c0.498,0.332,1.158,0.266,1.581-0.156
			l0.85-0.848c0.421-0.423,0.486-1.084,0.155-1.582l-1.118-1.679c0.202-0.388,0.369-0.793,0.501-1.21l1.978-0.396
			c0.588-0.117,1.012-0.632,1.012-1.23v-1.2C23.811,9.06,23.387,8.546,22.8,8.43z"/>
		<path id="Path_11" fill="#FFFFFF" d="M14.982,13.119h-3.48c-0.206,0.011-0.364,0.187-0.353,0.393
			c0.011,0.19,0.163,0.342,0.353,0.352h3.481c0.343,0,0.622,0.279,0.622,0.622v0.498c0,0.343-0.279,0.622-0.622,0.622h-3.481
			c-0.206-0.013-0.382,0.146-0.394,0.352c-0.011,0.207,0.147,0.383,0.352,0.394c0.014,0,0.028,0,0.042,0h3.481
			c0.343,0,0.622,0.279,0.622,0.622v0.497c0,0.345-0.279,0.623-0.622,0.623h-3.481c-0.206-0.013-0.382,0.146-0.394,0.352
			c-0.011,0.205,0.147,0.383,0.352,0.394c0.014,0,0.028,0,0.042,0h3.481c0.343,0,0.622,0.279,0.622,0.621v0.498
			c0,0.344-0.279,0.622-0.622,0.622h-3.481c-0.206-0.012-0.382,0.146-0.394,0.352c-0.011,0.207,0.147,0.382,0.352,0.395
			c0.014,0,0.028,0,0.042,0h3.481c0.343,0,0.622,0.278,0.622,0.62v0.498c0,0.344-0.279,0.622-0.622,0.622H8.227
			c-0.351,0.001-0.687-0.138-0.935-0.387c-0.388-0.388-0.913-0.606-1.462-0.606H4.913V17.97c0.012-0.207-0.146-0.382-0.352-0.394
			c-0.206-0.012-0.382,0.147-0.394,0.352c0,0.015,0,0.028,0,0.042v4.972c0,0.068-0.055,0.125-0.125,0.125H2.925V17.97
			c-0.012-0.207-0.188-0.363-0.394-0.353c-0.189,0.011-0.341,0.162-0.352,0.353v5.096H1.06c-0.069,0-0.125-0.057-0.125-0.125v-8.453
			c0-0.069,0.056-0.125,0.125-0.125h2.982c0.07,0,0.125,0.056,0.125,0.125v1.984c-0.011,0.205,0.147,0.382,0.353,0.394
			c0.206,0.01,0.382-0.147,0.393-0.353c0.001-0.014,0.001-0.027,0-0.041v-1.119h0.9c0.589,0,1.111-0.377,1.297-0.935l0.139-0.417
			c0.429-1.287,0.648-2.636,0.647-3.994c0-0.343,0.279-0.621,0.622-0.621c0.618,0,1.119,0.5,1.119,1.119v3.979
			c0.012,0.205,0.188,0.363,0.394,0.352c0.19-0.011,0.342-0.163,0.353-0.352V10.51C10.384,9.48,9.55,8.644,8.52,8.643
			c-0.002,0-0.004,0-0.007,0c-0.755,0-1.367,0.612-1.368,1.368c0,1.277-0.206,2.547-0.61,3.758l-0.138,0.416
			c-0.084,0.254-0.322,0.426-0.589,0.426H4.913v-0.126c0-0.479-0.39-0.87-0.871-0.87H1.06c-0.481,0-0.87,0.391-0.87,0.87v8.454
			c0,0.48,0.389,0.869,0.87,0.871h2.982c0.481-0.002,0.87-0.391,0.871-0.871v-0.124h0.914c0.353,0,0.691,0.14,0.94,0.391
			c0.388,0.388,0.914,0.605,1.462,0.603h6.756c0.755,0,1.366-0.611,1.368-1.367v-0.498c-0.551-0.517-0.576-1.38-0.059-1.93
			c0.019-0.021,0.038-0.038,0.059-0.058v-0.498c-0.551-0.516-0.576-1.38-0.059-1.93c0.019-0.021,0.038-0.039,0.059-0.058v-0.498
			c-0.551-0.518-0.576-1.381-0.059-1.931c0.019-0.02,0.038-0.039,0.059-0.058v-0.498C16.351,13.729,15.738,13.117,14.982,13.119
			L14.982,13.119z"/>
		<path id="Path_12" fill="#FFFFFF" d="M13.737,12.173c1.056-0.001,1.912-0.857,1.911-1.913c0-1.057-0.857-1.912-1.913-1.912
			c-1.056,0.001-1.911,0.857-1.91,1.914c0,0.098,0.007,0.195,0.021,0.292C11.994,11.485,12.796,12.17,13.737,12.173z M13.56,9.104
			c0.637-0.1,1.236,0.336,1.334,0.975c0.1,0.638-0.337,1.235-0.973,1.334c-0.638,0.1-1.236-0.336-1.336-0.974l0,0
			C12.486,9.802,12.921,9.205,13.56,9.104L13.56,9.104z"/>
		<path id="Path_13" fill="#FFFFFF" d="M17.111,13.863c0.102,0,0.199-0.04,0.27-0.112c1.687-1.759,1.875-4.469,0.45-6.444
			c-0.128-0.16-0.362-0.186-0.524-0.055c-0.149,0.12-0.183,0.333-0.079,0.493c1.213,1.683,1.053,3.993-0.383,5.491
			c-0.143,0.147-0.138,0.384,0.01,0.526c0.069,0.067,0.164,0.105,0.262,0.104L17.111,13.863z"/>
		<path id="Path_14" fill="#FFFFFF" d="M16.85,6.753c0.123-0.164,0.092-0.397-0.071-0.522h-0.002
			c-2.224-1.677-5.387-1.233-7.064,0.992C9.564,7.42,9.431,7.626,9.313,7.843C9.205,8.018,9.261,8.248,9.436,8.355
			c0.176,0.108,0.407,0.052,0.515-0.124C9.956,8.221,9.962,8.211,9.968,8.2c1.137-2.084,3.749-2.852,5.832-1.713
			c0.184,0.101,0.361,0.214,0.528,0.339C16.493,6.95,16.725,6.918,16.85,6.753z"/>
	</g>
</g>
</svg>
