<svg xmlns="http://www.w3.org/2000/svg" viewBox="0 0 9.643 12.656">
  <defs>
    <style>
      .cls-1 {
        fill: #666;
      }
    </style>
  </defs>
  <path id="ic_https_24px" class="cls-1" d="M12.437,5.219h-.6V4.013a3.013,3.013,0,0,0-6.027,0V5.219h-.6A1.209,1.209,0,0,0,4,6.424v6.027a1.209,1.209,0,0,0,1.205,1.205h7.232a1.209,1.209,0,0,0,1.205-1.205V6.424A1.209,1.209,0,0,0,12.437,5.219ZM8.821,10.643a1.205,1.205,0,1,1,1.205-1.205A1.209,1.209,0,0,1,8.821,10.643ZM10.69,5.219H6.953V4.013a1.868,1.868,0,0,1,3.737,0Z" transform="translate(-4 -1)"/>
</svg>
