<?xml version="1.0" encoding="utf-8"?>
<!-- Generator: Adobe Illustrator 15.0.0, SVG Export Plug-In . SVG Version: 6.00 Build 0)  -->
<!DOCTYPE svg PUBLIC "-//W3C//DTD SVG 1.0//EN" "http://www.w3.org/TR/2001/REC-SVG-20010904/DTD/svg10.dtd">
<svg version="1.0" id="Layer_1" xmlns="http://www.w3.org/2000/svg" xmlns:xlink="http://www.w3.org/1999/xlink" x="0px" y="0px"
	 width="24px" height="24px" viewBox="0 0 24 24" enable-background="new 0 0 24 24" xml:space="preserve">
<g id="Symbol_3_1" transform="translate(-23.184 -109)">
	<path id="Path_52" fill="#FFFFFF" d="M37.317,133h0.775v-3.869h-0.775V133z"/>
	<path id="Path_53" fill="#FFFFFF" d="M32.668,133h0.775v-3.869h-0.775V133z"/>
	<g id="Group_148" transform="translate(23.184 109)">
		<g id="Group_141" transform="translate(7.007 7.848)">
			<path id="Path_54" fill="#FFFFFF" d="M6.351,6.469c0,0.642-0.521,1.161-1.163,1.161l0,0c-0.642,0-1.162-0.52-1.162-1.161l0,0
				V5.693c0-0.642,0.521-1.161,1.162-1.161l0,0c0.642,0,1.163,0.52,1.163,1.161l0,0V6.469z M5.189,3.758
				c-1.068,0-1.935,0.866-1.935,1.934v0.776c0,1.068,0.867,1.935,1.935,1.935c1.068,0,1.934-0.866,1.934-1.935V5.692
				C7.123,4.624,6.257,3.758,5.189,3.758"/>
		</g>
		<g id="Group_142" transform="translate(0 11.772)">
			<path id="Path_55" fill="#FFFFFF" d="M21.104,6.032h-3.869c-0.35,0.001-0.697,0.068-1.02,0.2
				c-0.513-0.616-1.271-0.972-2.074-0.974h-3.868C9.473,5.26,8.714,5.616,8.201,6.232c-0.324-0.132-0.67-0.199-1.02-0.2H3.312
				c-1.497,0.002-2.71,1.214-2.711,2.711v3.485h0.775V8.743c0-1.068,0.866-1.935,1.935-1.935l0,0H4.86v5.423h0.775V6.808h1.548
				C7.389,6.809,7.592,6.843,7.788,6.91C7.644,7.244,7.57,7.605,7.57,7.971v4.26h0.776v-4.26c0-1.07,0.866-1.935,1.934-1.935l0,0
				h1.549v6.195h0.775V6.037h1.55c1.067,0,1.934,0.864,1.934,1.935l0,0v4.26h0.775v-4.26c0-0.366-0.072-0.728-0.217-1.062
				c0.194-0.066,0.398-0.101,0.604-0.102h1.548v5.423h0.776V6.808h1.549c1.068,0,1.935,0.866,1.935,1.935l0,0v3.485h0.774V8.743
				c-0.002-1.497-1.214-2.708-2.711-2.711"/>
		</g>
		<path id="Path_56" fill="#FFFFFF" d="M2.513,20.9h0.775v3.099H2.513V20.9z"/>
		<g id="Group_143" transform="translate(1.962 8.408)">
			<path id="Path_57" fill="#FFFFFF" d="M4.425,6.689c0,0.642-0.521,1.161-1.163,1.161l0,0C2.621,7.85,2.1,7.33,2.1,6.689l0,0V5.914
				c0-0.644,0.521-1.164,1.162-1.164l0,0c0.642,0,1.163,0.521,1.163,1.164l0,0V6.689z M3.262,3.977
				c-1.069,0-1.934,0.867-1.934,1.936v0.774c0,1.068,0.865,1.936,1.934,1.936c1.068,0,1.935-0.867,1.935-1.936V5.912
				C5.197,4.844,4.33,3.977,3.262,3.977"/>
		</g>
		<path id="Path_58" fill="#FFFFFF" d="M21.104,20.9h0.775v3.099h-0.775V20.9z"/>
		<g id="Group_144" transform="translate(12.052 8.408)">
			<path id="Path_59" fill="#FFFFFF" d="M8.276,6.689c0,0.642-0.52,1.161-1.16,1.161l0,0c-0.644,0-1.163-0.52-1.163-1.161l0,0V5.914
				c0-0.644,0.52-1.164,1.163-1.164l0,0c0.641,0,1.16,0.521,1.16,1.164l0,0V6.689z M7.116,3.977c-1.069,0-1.936,0.867-1.936,1.936
				v0.774c0,1.068,0.866,1.936,1.936,1.936c1.067,0,1.934-0.867,1.934-1.936V5.912C9.05,4.844,8.183,3.977,7.116,3.977"/>
		</g>
		<g id="Group_145" transform="translate(0)">
			<path id="Path_60" fill="#FFFFFF" d="M21.288,10.443c-0.234-1.111-0.672-2.17-1.294-3.122l1.789-1.788l-2.739-2.738l-1.788,1.788
				c-0.951-0.621-2.01-1.059-3.122-1.293V0.761h-3.868V3.29c-1.111,0.235-2.17,0.674-3.122,1.293L5.356,2.795l-2.74,2.738
				l1.789,1.788c-0.62,0.952-1.059,2.01-1.293,3.122H0.583v3.87h1.935v-0.775H1.355v-2.32h2.399l0.057-0.321
				C4.023,9.673,4.505,8.511,5.22,7.496l0.187-0.268L3.71,5.532l1.643-1.644l1.695,1.697l0.267-0.187
				c1.017-0.714,2.178-1.195,3.402-1.41l0.32-0.056V1.533h2.325v2.399l0.32,0.056c1.225,0.213,2.387,0.695,3.401,1.41l0.267,0.187
				l1.698-1.697l1.643,1.644l-1.697,1.695l0.187,0.266c0.716,1.016,1.196,2.178,1.41,3.402l0.057,0.321h2.398v2.324h-1.161v0.776
				h1.933v-3.87L21.288,10.443z"/>
		</g>
		<g id="Group_146" transform="translate(6.189 5.877)">
			<path id="Path_61" fill="#FFFFFF" d="M5.578,3.041C4.212,3.238,3.139,4.309,2.94,5.673l0.767,0.11
				c0.184-1.277,1.37-2.164,2.649-1.979c1.025,0.148,1.831,0.954,1.979,1.979l0.768-0.11C8.853,3.975,7.278,2.796,5.578,3.041"/>
		</g>
		<g id="Group_147" transform="translate(4.246 4.196)">
			<path id="Path_62" fill="#FFFFFF" d="M7.13,2.421C4.571,2.784,2.561,4.794,2.198,7.353l0.767,0.111
				C3.36,4.711,5.913,2.8,8.665,3.196l0,0c2.213,0.318,3.95,2.057,4.268,4.269l0,0l0.768-0.11c-0.449-3.173-3.387-5.383-6.56-4.933
				c-0.004,0-0.009,0.001-0.013,0.001"/>
		</g>
	</g>
</g>
</svg>
