<?xml version="1.0" encoding="utf-8"?>
<!-- Generator: Adobe Illustrator 15.0.0, SVG Export Plug-In . SVG Version: 6.00 Build 0)  -->
<!DOCTYPE svg PUBLIC "-//W3C//DTD SVG 1.0//EN" "http://www.w3.org/TR/2001/REC-SVG-20010904/DTD/svg10.dtd">
<svg version="1.0" id="Layer_1" xmlns="http://www.w3.org/2000/svg" xmlns:xlink="http://www.w3.org/1999/xlink" x="0px" y="0px"
	 width="24px" height="24px" viewBox="0 0 24 24" enable-background="new 0 0 24 24" xml:space="preserve">
<g id="_003-module" transform="translate(0.497 -0.082)">
	<path id="Path_15" fill="#FFFFFF" d="M9.332,4.483c0.182,0.183,0.477,0.183,0.66,0l1.475-1.476c0.176-0.188,0.166-0.484-0.022-0.66
		c-0.179-0.168-0.458-0.168-0.637,0L9.332,3.82C9.148,4.001,9.147,4.297,9.329,4.48C9.33,4.481,9.331,4.482,9.332,4.483z"/>
	<path id="Path_16" fill="#FFFFFF" d="M11.787,4.483c0.181,0.183,0.476,0.183,0.658,0.001l0.002-0.001l1.476-1.476
		c0.176-0.188,0.165-0.484-0.022-0.66c-0.18-0.168-0.459-0.168-0.637,0L11.787,3.82c-0.184,0.18-0.186,0.476-0.005,0.66
		C11.784,4.48,11.785,4.482,11.787,4.483z"/>
	<path id="Path_17" fill="#FFFFFF" d="M22.458,18.32h-1.65v-1.549c0-0.26-0.208-0.467-0.466-0.467l0,0h-1.755v-1.062h1.65
		c0.387,0,0.7-0.313,0.7-0.7l0,0V10.31c-0.001-0.387-0.313-0.701-0.7-0.701h-1.65V8.099c0-0.258-0.209-0.467-0.466-0.467l0,0H12.12
		V6.574h3.391c0.401,0,0.728-0.326,0.728-0.729l0,0V0.988c0-0.403-0.326-0.729-0.728-0.729l0,0h-2.063
		c-0.257,0.013-0.457,0.232-0.443,0.489c0.01,0.241,0.202,0.434,0.443,0.444h1.856V5.64h-7.3V1.192h1.7
		c0.257-0.012,0.456-0.23,0.444-0.488c-0.011-0.24-0.204-0.433-0.444-0.445H7.798c-0.402,0-0.729,0.326-0.729,0.729l0,0v4.853
		c0,0.403,0.326,0.729,0.729,0.729l0,0h3.389v1.059H4.94c-0.258,0-0.466,0.209-0.466,0.467l0,0v1.51h-1.65
		c-0.386,0.001-0.7,0.314-0.7,0.7v4.236c0,0.385,0.313,0.698,0.7,0.698l0,0h1.65v1.062H3.032c-0.258,0-0.467,0.209-0.467,0.468
		v1.549H0.89c-0.386,0-0.7,0.313-0.7,0.7l0,0v4.235c0,0.387,0.313,0.697,0.7,0.699h4.235c0.386-0.002,0.699-0.313,0.7-0.699v-4.233
		c-0.001-0.387-0.314-0.697-0.7-0.699H3.499v-1.078h7.688v1.078H9.569c-0.402,0-0.728,0.327-0.728,0.728v4.18
		c0,0.399,0.326,0.727,0.728,0.727h0.236c0.258-0.011,0.457-0.231,0.445-0.489c-0.012-0.239-0.204-0.432-0.445-0.444H9.771v-3.767
		h3.767v3.767h-0.032c-0.258-0.012-0.476,0.187-0.489,0.444c-0.011,0.258,0.188,0.477,0.445,0.487c0.014,0.002,0.029,0.002,0.044,0
		h0.239c0.401,0,0.728-0.325,0.728-0.727v-4.18c0-0.4-0.326-0.729-0.728-0.729h-1.618V17.24h7.754v1.077h-1.65
		c-0.386,0.003-0.699,0.313-0.699,0.7v4.235c0,0.387,0.313,0.697,0.699,0.699h4.229c0.387,0,0.701-0.313,0.701-0.699v-4.233
		C23.159,18.633,22.846,18.322,22.458,18.32L22.458,18.32z M4.891,19.254v3.767H1.123v-3.767H4.891z M3.056,14.31v-3.769h3.768
		v3.769H3.056z M17.658,16.305H5.406v-1.062h1.651c0.387,0,0.7-0.313,0.7-0.7l0,0V10.31c0-0.387-0.313-0.701-0.7-0.701H5.406V8.564
		h12.252v1.045h-1.649c-0.387,0-0.701,0.314-0.701,0.701l0,0v4.235c0,0.387,0.314,0.7,0.701,0.7l0,0h1.649V16.305z M16.237,14.31
		v-3.769h3.767v3.769H16.237z M22.225,23.02h-3.768v-3.767h3.767L22.225,23.02z"/>
	<path id="Path_18" fill="#FFFFFF" d="M11.306,1.099l0.014,0.01c0.201,0.163,0.495,0.132,0.657-0.07
		c0.163-0.2,0.13-0.494-0.069-0.656c-0.007-0.006-0.014-0.011-0.022-0.017l-0.014-0.011c-0.213-0.146-0.504-0.091-0.649,0.121
		C11.086,0.675,11.123,0.944,11.306,1.099L11.306,1.099z"/>
	<path id="Path_19" fill="#FFFFFF" d="M11.944,23.102l-0.015-0.011c-0.197-0.165-0.492-0.14-0.658,0.059
		c-0.165,0.199-0.138,0.492,0.059,0.657c0.012,0.01,0.024,0.019,0.036,0.027l0.014,0.01c0.197,0.167,0.492,0.139,0.657-0.058
		c0.166-0.198,0.139-0.493-0.058-0.658C11.968,23.117,11.956,23.109,11.944,23.102z"/>
</g>
</svg>
