<?xml version="1.0" encoding="utf-8"?>
<!-- Generator: Adobe Illustrator 15.0.0, SVG Export Plug-In . SVG Version: 6.00 Build 0)  -->
<!DOCTYPE svg PUBLIC "-//W3C//DTD SVG 1.0//EN" "http://www.w3.org/TR/2001/REC-SVG-20010904/DTD/svg10.dtd">
<svg version="1.0" id="Layer_1" xmlns="http://www.w3.org/2000/svg" xmlns:xlink="http://www.w3.org/1999/xlink" x="0px" y="0px"
	 width="24px" height="24px" viewBox="0 0 24 24" enable-background="new 0 0 24 24" xml:space="preserve">
<g id="Mask_Group_1">
	<g id="video" transform="translate(6.186)">
		<path id="Path_35" fill="#FFFFFF" d="M-4.441,19.217h0.759v0.76h-0.759V19.217z"/>
		<path id="Path_36" fill="#FFFFFF" d="M-2.922,19.217h0.76v0.76h-0.76V19.217z"/>
		<path id="Path_37" fill="#FFFFFF" d="M-1.403,19.217h0.76v0.76h-0.76V19.217z"/>
		<path id="Path_38" fill="#FFFFFF" d="M10.372,1.745h0.759v0.759h-0.759V1.745z"/>
		<path id="Path_39" fill="#FFFFFF" d="M8.852,1.745h0.759v0.759H8.852V1.745z"/>
		<path id="Path_40" fill="#FFFFFF" d="M11.89,1.745h0.761v0.759H11.89V1.745z"/>
		<path id="Path_41" fill="#FFFFFF" d="M15.688,4.784h-2.284v1.519h-2.379L9.611,7.151V6.304H8.087V0.985h5.314v3.039h0.761V0.226
			h-6.83v6.837h1.519v1.43l2.385-1.431h2.933v-1.52h1.52c0.631,0,1.143,0.512,1.143,1.143v11.772H1.032l-0.759-0.758h-5.475V6.683
			c0-0.631,0.512-1.143,1.143-1.143l0,0h4.555v0.021c0,0.295,0.068,0.586,0.199,0.85l0.56,1.118c0.098,0.191,0.226,0.365,0.38,0.513
			v0.599l-2.619,0.476c-0.903,0.165-1.561,0.952-1.56,1.871v5.949H9.61v-5.949c0-0.918-0.654-1.704-1.558-1.868L5.434,8.645v-0.6
			c0.154-0.148,0.284-0.322,0.38-0.512l0.56-1.118c0.131-0.265,0.199-0.556,0.2-0.851V3.737c0.001-0.641-0.35-1.232-0.914-1.538
			l-0.39-0.39C4.176,0.717,2.406,0.717,1.314,1.811C0.791,2.333,0.498,3.042,0.496,3.782h0.759c0-1.126,0.912-2.037,2.038-2.037
			c0.541,0,1.059,0.214,1.44,0.597l0.476,0.475l0.056,0.028c0.338,0.167,0.551,0.512,0.55,0.889v1.827
			c0,0.177-0.041,0.351-0.12,0.509l-0.56,1.118c-0.192,0.388-0.587,0.631-1.019,0.63H2.953C2.522,7.821,2.127,7.577,1.934,7.191
			L1.375,6.074c-0.077-0.159-0.116-0.333-0.114-0.51v-0.78h-5.323C-5.11,4.786-5.958,5.634-5.959,6.683v12.915
			c0.001,1.047,0.85,1.896,1.899,1.898h4.935v1.52h-1.519v0.758h12.913v-0.758h-1.519v-1.52h4.938
			c1.049-0.002,1.898-0.852,1.899-1.898V6.683C17.586,5.634,16.737,4.785,15.688,4.784z M3.535,10.588l0.564,0.457l-0.387,0.581
			H3.357L2.97,11.045L3.535,10.588z M5.148,9.362l0.268,0.049l-0.252,1.505l-1.011-0.809L5.148,9.362z M3.892,14.145L3.539,14.5
			l-0.364-0.352L3.47,12.38h0.115L3.892,14.145z M1.903,10.919L1.651,9.414L1.92,9.362l0.995,0.746L1.903,10.919z M8.851,10.989
			v5.189H7.333V11.24H6.574v4.938H0.496V11.24h-0.76v4.938h-1.52v-5.189c0-0.551,0.394-1.021,0.936-1.122l1.752-0.318l0.458,2.772
			l1.015-0.806l0.38,0.571l-0.39,2.322l1.167,1.168l1.167-1.168l-0.383-2.323l0.38-0.571l1.007,0.807l0.457-2.772l1.753,0.318
			C8.457,9.967,8.85,10.438,8.851,10.989L8.851,10.989z M4.114,8.582c0.19,0,0.378-0.029,0.56-0.085v0.275L3.533,9.625L2.39,8.771
			V8.496c0.181,0.056,0.37,0.085,0.56,0.085H4.114z M15.688,20.736H2.395v0.758h7.597v1.52H1.635V20.73h-5.697
			c-0.63,0-1.142-0.512-1.142-1.143v-1.143h5.163l0.76,0.76h16.109v0.381c0,0.631-0.511,1.143-1.142,1.143L15.688,20.736z"/>
		<path id="Path_42" fill="#FFFFFF" d="M8.852,3.264h3.799v0.76H8.852V3.264z"/>
		<path id="Path_43" fill="#FFFFFF" d="M8.852,4.784h3.799v0.759H8.852V4.784z"/>
	</g>
</g>
</svg>
