<?xml version="1.0" encoding="utf-8"?>
<!-- Generator: Adobe Illustrator 15.0.0, SVG Export Plug-In . SVG Version: 6.00 Build 0)  -->
<!DOCTYPE svg PUBLIC "-//W3C//DTD SVG 1.0//EN" "http://www.w3.org/TR/2001/REC-SVG-20010904/DTD/svg10.dtd">
<svg version="1.0" id="Layer_1" xmlns="http://www.w3.org/2000/svg" xmlns:xlink="http://www.w3.org/1999/xlink" x="0px" y="0px"
	 width="24px" height="24px" viewBox="0 0 24 24" enable-background="new 0 0 24 24" xml:space="preserve">
<g id="_004-user" transform="translate(0 -1.376)">
	<g id="Group_26" transform="translate(8.175 7.251)">
		<g id="Group_25">
			<path id="Path_20" fill="#FFFFFF" d="M14.93,15.032c-0.286-0.965-1.093-1.688-2.083-1.864l-2.512-0.457v-0.198
				c0.956-0.553,1.628-1.491,1.841-2.575c0.709-0.149,1.217-0.774,1.218-1.5V4.661c0-1.062-0.695-1.999-1.713-2.301l-0.192-0.192
				c-1.839-1.839-4.821-1.839-6.662,0c-0.882,0.884-1.38,2.082-1.38,3.332v2.938c0.001,0.726,0.51,1.351,1.217,1.5
				c0.215,1.084,0.887,2.022,1.843,2.575v0.198l-2.51,0.457c-0.992,0.177-1.799,0.899-2.086,1.864l-0.886,2.971h14.802L14.93,15.032
				z M12.248,9.1V7.782c0.363,0.207,0.49,0.67,0.283,1.032C12.463,8.934,12.365,9.032,12.248,9.1z M4.597,9.1
				c-0.365-0.209-0.49-0.672-0.283-1.035C4.382,7.945,4.48,7.849,4.597,7.782V9.1z M4.597,6.527v0.438
				C4.462,6.998,4.333,7.053,4.213,7.122V5.499c0-2.178,1.768-3.944,3.946-3.944c1.047,0,2.051,0.416,2.79,1.155l0.333,0.338
				l0.102,0.025c0.73,0.182,1.243,0.837,1.241,1.588v2.464c-0.12-0.069-0.248-0.123-0.382-0.157V6.531h-1.219
				c-1.043-0.004-2.022-0.496-2.648-1.33L8.071,4.795L7.31,5.556C6.691,6.179,5.847,6.528,4.969,6.525L4.597,6.527z M5.361,9.205
				V7.273c0.948-0.087,1.831-0.503,2.501-1.176L8.012,5.95c0.773,0.853,1.871,1.34,3.023,1.341h0.441v1.914
				c0.033,1.689-1.312,3.085-3.001,3.119c-1.689,0.03-3.087-1.313-3.119-3.003c-0.002-0.039-0.002-0.077,0-0.116H5.361z
				 M7.306,12.862c0.728,0.224,1.505,0.224,2.231,0l-1.115,0.837L7.306,12.862z M7.841,14.22l-0.783,0.775l-0.506-1.52l0.244-0.043
				L7.841,14.22z M10.048,13.438l0.244,0.043L9.786,15l-0.782-0.774L10.048,13.438z M2.051,17.238l0.595-1.985
				c0.205-0.689,0.781-1.204,1.489-1.328l1.66-0.302l0.934,2.796l1.695-1.697l1.698,1.697l0.932-2.797l1.661,0.301
				c0.707,0.126,1.283,0.641,1.491,1.33l0.594,1.985H2.051z"/>
		</g>
	</g>
	<g id="Group_28" transform="translate(0 1.376)">
		<g id="Group_27" transform="translate(0 0)">
			<path id="Path_21" fill="#FFFFFF" d="M10.094,6.347V3.921L9.055,3.645c-0.03-0.08-0.064-0.16-0.101-0.241l0.54-0.931L7.785,0.76
				L6.848,1.294C6.769,1.257,6.689,1.225,6.61,1.193L6.332,0.155H3.911L3.633,1.193c-0.08,0.03-0.16,0.064-0.239,0.101L2.46,0.76
				L0.747,2.475l0.539,0.931c-0.032,0.079-0.069,0.159-0.1,0.239L0.147,3.921v2.425l1.039,0.277c0.031,0.08,0.063,0.159,0.1,0.24
				L0.747,7.793L2.46,9.507l0.931-0.539c0.08,0.036,0.16,0.069,0.24,0.1l0.277,1.039h2.424L6.61,9.068
				c0.08-0.03,0.16-0.064,0.239-0.1l0.931,0.539l1.713-1.714l-0.54-0.931c0.037-0.08,0.07-0.159,0.101-0.24L10.094,6.347z
				 M8.537,7.668L7.651,8.554L6.876,8.103L6.69,8.199C6.524,8.285,6.352,8.356,6.174,8.415L5.976,8.479L5.745,9.346h-1.25
				l-0.23-0.871L4.065,8.411c-0.177-0.058-0.351-0.13-0.516-0.216L3.363,8.1L2.589,8.551L1.703,7.666L2.153,6.89L2.059,6.705
				C1.973,6.538,1.9,6.365,1.842,6.188L1.778,5.989L0.912,5.758V4.504l0.868-0.221l0.064-0.2c0.058-0.177,0.13-0.35,0.216-0.516
				l0.095-0.186L1.704,2.607L2.59,1.721l0.774,0.451l0.187-0.103c0.166-0.085,0.338-0.158,0.515-0.216l0.199-0.062l0.231-0.866
				h1.248l0.231,0.866l0.198,0.064c0.177,0.057,0.35,0.128,0.516,0.213l0.186,0.095L7.65,1.714L8.535,2.6l-0.45,0.775L8.18,3.561
				c0.086,0.166,0.159,0.338,0.216,0.516l0.064,0.2l0.867,0.23v1.251L8.46,5.989L8.396,6.188c-0.057,0.177-0.13,0.35-0.216,0.517
				L8.085,6.89L8.537,7.668z"/>
		</g>
	</g>
	<g id="Group_30" transform="translate(2.073 3.449)">
		<g id="Group_29">
			<path id="Path_22" fill="#FFFFFF" d="M5.195,4.658c0.882-1.186,0.637-2.863-0.549-3.746C3.461,0.029,1.783,0.275,0.901,1.461
				C0.018,2.646,0.264,4.323,1.45,5.206c0.959,0.715,2.278,0.705,3.228-0.023L4.211,4.577C3.877,4.835,3.467,4.974,3.045,4.972
				c-1.057,0-1.912-0.858-1.912-1.914c0-1.057,0.857-1.913,1.914-1.912c1.057,0,1.913,0.858,1.913,1.914c0,0.002,0,0.003,0,0.005
				c0,0.412-0.132,0.812-0.378,1.141L5.195,4.658z"/>
		</g>
	</g>
	<g id="Group_32" transform="translate(14.86 1.376)">
		<g id="Group_31" transform="translate(0 0)">
			<path id="Path_23" fill="#FFFFFF" d="M8.352,4.863L7.858,5.358V3.986C7.856,1.875,6.144,0.163,4.032,0.161H1.738v0.765h2.294
				c1.689,0.001,3.06,1.371,3.061,3.061v1.372L6.598,4.863L6.056,5.404l1.419,1.418l1.418-1.418L8.352,4.863z"/>
		</g>
	</g>
	<g id="Group_34" transform="translate(0.101 16.784)">
		<g id="Group_33">
			<path id="Path_24" fill="#FFFFFF" d="M1.959,4.646V3.275l0.495,0.494l0.542-0.541L1.577,1.81L0.158,3.228L0.7,3.769l0.495-0.494
				v1.371C1.197,6.757,2.909,8.468,5.02,8.472V7.705C3.331,7.705,1.961,6.334,1.959,4.646z"/>
		</g>
	</g>
	<g id="Group_36" transform="translate(0 11.743)">
		<g id="Group_35">
			<rect id="Rectangle_31" x="0.147" y="1.27" fill="#FFFFFF" width="9.947" height="0.765"/>
		</g>
	</g>
	<g id="Group_38" transform="translate(0 14.508)">
		<g id="Group_37">
			<rect id="Rectangle_32" x="0.147" y="1.565" fill="#FFFFFF" width="9.947" height="0.767"/>
		</g>
	</g>
	<g id="Group_40" transform="translate(0 13.125)">
		<g id="Group_39">
			<rect id="Rectangle_33" x="0.147" y="1.417" fill="#FFFFFF" width="4.59" height="0.767"/>
		</g>
	</g>
	<g id="Group_42" transform="translate(4.838 13.125)">
		<g id="Group_41">
			<path id="Path_25" fill="#FFFFFF" d="M2.864,1.417H0.664v0.767h4.591V1.417H2.864z"/>
		</g>
	</g>
	<g id="Group_44" transform="translate(13.477 1.376)">
		<g id="Group_43">
			<rect id="Rectangle_34" x="1.588" y="0.161" fill="#FFFFFF" width="0.765" height="0.765"/>
		</g>
	</g>
	<g id="Group_46" transform="translate(12.095 1.376)">
		<g id="Group_45">
			<rect id="Rectangle_35" x="1.439" y="0.161" fill="#FFFFFF" width="0.767" height="0.765"/>
		</g>
	</g>
	<g id="Group_48" transform="translate(5.184 22.11)">
		<g id="Group_47">
			<rect id="Rectangle_36" x="0.701" y="2.379" fill="#FFFFFF" width="0.765" height="0.765"/>
		</g>
	</g>
	<g id="Group_50" transform="translate(6.566 22.11)">
		<g id="Group_49">
			<rect id="Rectangle_37" x="0.849" y="2.379" fill="#FFFFFF" width="0.765" height="0.765"/>
		</g>
	</g>
</g>
</svg>
